# xmcd
#
# Track frame offsets: 
#        182
#        18762
#        35180
#        53070
#        72355
#        90507
#        107042
#        126740
#        147155
#        166855
#        187815
#        203692
#        217397
#        236090
#        254045
#        272307
#        291442
#        310485
#
# Disc length: 4360 seconds
#
# Revision: 10
# Processed by: cddbd v1.5.1PL0 Copyright (c) Steve Scherf et al.
# Submitted via: ExactAudioCopy v0.95a5
#
DISCID=17110612
DTITLE=Various Artist - Totally Hits 2
DYEAR=2000
DGENRE=Pop/Rock
TTITLE0=Santana (featuring The Product G&B) - Maria, Maria
TTITLE1=Christina Aguilera - Genie In A Bottle
TTITLE2=Third Eye Blind - Never Let You Go
TTITLE3=Sugar Ray - Falls Apart
TTITLE4=Lonestar - Amazed
TTITLE5=Lou Bega - Mambo No. 5
TTITLE6=Madonna - Beautiful Stranger
TTITLE7=Whitney Houston - My Love Is Your Love (Jonathan Peter's Radio
TTITLE7=Mix)
TTITLE8=Filter - Take A Picture
TTITLE9=TLC - Dear Lie
TTITLE10=Missy Elliott - Hot Boyz
TTITLE11=Moby - Natural Blues
TTITLE12=LFO - Girl On TV
TTITLE13='NSYNC - I Drive Myself Crazy
TTITLE14=Donell Jones - U Know What's Up
TTITLE15=Monica (featuring 112) - Right Here Waiting
TTITLE16=R.E.M. - The Great Beyond
TTITLE17=Sarah McLachlan - I Will Remember You
EXTD=
EXTT0=
EXTT1=
EXTT2=
EXTT3=
EXTT4=
EXTT5=
EXTT6=
EXTT7=
EXTT8=
EXTT9=
EXTT10=
EXTT11=
EXTT12=
EXTT13=
EXTT14=
EXTT15=
EXTT16=
EXTT17=
PLAYORDER=
